<?xml version="1.0" encoding="UTF-8" standalone="no"?>
<!-- Created with Inkscape (http://www.inkscape.org/) -->

<svg
   width="15.848182mm"
   height="31.462601mm"
   viewBox="0 0 15.848182 31.462601"
   version="1.1"
   id="svg1"
   inkscape:version="1.3.2 (1:1.3.2+202311252150+091e20ef0f)"
   sodipodi:docname="plant7.svg"
   xmlns:inkscape="http://www.inkscape.org/namespaces/inkscape"
   xmlns:sodipodi="http://sodipodi.sourceforge.net/DTD/sodipodi-0.dtd"
   xmlns="http://www.w3.org/2000/svg"
   xmlns:svg="http://www.w3.org/2000/svg">
  <sodipodi:namedview
     id="namedview1"
     pagecolor="#ffffff"
     bordercolor="#000000"
     borderopacity="0.25"
     inkscape:showpageshadow="2"
     inkscape:pageopacity="0.0"
     inkscape:pagecheckerboard="0"
     inkscape:deskcolor="#d1d1d1"
     inkscape:document-units="mm"
     inkscape:zoom="0.72693603"
     inkscape:cx="35.766558"
     inkscape:cy="242.11209"
     inkscape:window-width="1850"
     inkscape:window-height="1016"
     inkscape:window-x="0"
     inkscape:window-y="0"
     inkscape:window-maximized="1"
     inkscape:current-layer="layer1" />
  <defs
     id="defs1" />
  <g
     inkscape:label="Layer 1"
     inkscape:groupmode="layer"
     id="layer1"
     transform="translate(-95.514583,-84.402083)">
    <path
       style="fill:#000000"
       d="m 95.890907,115.77272 c 0,-0.064 0.03302,-0.15247 0.07338,-0.19671 0.100254,-0.1099 0.817876,-2.00334 0.977109,-2.5781 0.242211,-0.87428 0.724222,-3.6807 0.85796,-4.99533 0.07343,-0.72179 0.167015,-2.51249 0.207972,-3.97934 0.04096,-1.46685 0.101006,-2.93965 0.133443,-3.27288 l 0.05898,-0.60589 -0.687989,-1.315207 c -0.378394,-0.723364 -0.764091,-1.50828 -0.857105,-1.744259 -0.418058,-1.060622 -0.768155,-2.515786 -0.94455,-3.925983 -0.181924,-1.454396 -0.257082,-3.707717 -0.137821,-4.132035 0.07043,-0.250594 0.512797,-0.474155 1.422656,-0.718977 0.684916,-0.184295 0.769898,-0.24786 0.707615,-0.529287 -0.102,-0.460894 -0.13108,-0.507365 -0.369502,-0.590479 -0.336593,-0.117337 -0.540223,-0.449009 -0.470518,-0.766376 0.0912,-0.415233 0.481936,-0.602081 0.89836,-0.429593 0.315013,0.130483 0.386167,0.406188 0.203937,0.79021 -0.12843,0.270646 -0.13036,0.34701 -0.01997,0.790343 0.07466,0.299841 0.167355,0.490749 0.238279,0.490749 0.139664,0 0.211124,-0.387935 0.268913,-1.459844 0.03671,-0.680983 0.0216,-0.806248 -0.116479,-0.965455 -0.202101,-0.233024 -0.207632,-0.756632 -0.0105,-0.994066 0.08149,-0.09815 0.268023,-0.201592 0.414514,-0.229866 0.379668,-0.07328 0.622652,0.186122 0.622657,0.664731 3e-6,0.311281 -0.04238,0.395415 -0.314085,0.623534 -0.301992,0.253545 -0.315365,0.287782 -0.347244,0.889 -0.02713,0.511739 -0.01315,0.606079 0.07702,0.519466 0.16229,-0.155897 0.724007,-0.135844 0.786915,0.02809 0.09338,0.243339 0.05351,0.570064 -0.08873,0.727242 -0.131487,0.145292 -0.129253,0.154834 0.03625,0.154834 0.1356,0 0.215511,-0.104607 0.345677,-0.452507 0.293649,-0.784843 0.369969,-1.404416 0.230219,-1.868793 -0.179547,-0.596575 0.0289,-0.9807 0.53227,-0.9807 0.22651,0 0.51971,0.388566 0.51971,0.688751 0,0.277413 -0.26166,0.581249 -0.50056,0.581249 -0.12521,0 -0.17462,0.08154 -0.21805,0.359833 -0.0309,0.197908 -0.13271,0.640454 -0.22627,0.983435 -0.10977,0.402389 -0.14102,0.652702 -0.0881,0.705635 0.14413,0.144131 0.35563,-0.278785 0.35563,-0.711124 0,-0.339178 0.0344,-0.42505 0.21823,-0.545531 0.41493,-0.271872 0.91057,0.08063 0.75107,0.534165 -0.0728,0.206974 -0.18694,0.292799 -0.7153,0.537838 -0.25577,0.118617 -0.18819,0.317851 0.14352,0.423085 0.72623,0.230399 0.70315,0.174449 0.70315,1.704478 0,1.118473 -0.038,1.550716 -0.21142,2.407367 -0.24903,1.229932 -0.74295,2.604007 -1.27575,3.549152 -0.833932,1.479298 -1.406892,2.75982 -1.5292,3.417639 -0.07594,0.408426 -0.149388,1.752786 -0.199527,3.652026 -0.07799,2.95422 -0.117174,3.52879 -0.388748,5.70038 -0.0747,0.59733 -0.116502,1.10537 -0.09289,1.12898 0.02361,0.0236 0.262209,-0.33177 0.530223,-0.78972 0.758152,-1.29544 1.176311,-1.87869 2.782202,-3.88064 1.71602,-2.13923 2.07126,-2.76816 2.8703,-5.08172 0.89839,-2.601234 1.46813,-3.801535 2.40042,-5.057112 0.61825,-0.832633 0.63902,-0.840903 1.42929,-0.569012 0.47018,0.161767 0.50563,0.163297 0.60592,0.02615 0.14199,-0.194191 0.1345,-0.304488 -0.0416,-0.613458 -0.1338,-0.23467 -0.13585,-0.281896 -0.0212,-0.486907 0.29038,-0.519103 1.01738,-0.401953 1.0147,0.163512 -0.002,0.329848 -0.0811,0.468255 -0.34454,0.599596 -0.27664,0.137918 -0.48777,0.524882 -0.35747,0.655179 0.22488,0.224879 1.07614,-1.085895 0.9888,-1.522565 -0.0397,-0.198404 -0.004,-0.298386 0.16686,-0.469383 0.39721,-0.397209 0.90231,-0.240146 0.90231,0.280577 0,0.353964 -0.19718,0.60281 -0.47766,0.60281 -0.18246,0 -0.44281,0.254264 -0.86233,0.84218 -0.45613,0.639208 -0.31806,0.797565 0.26227,0.30082 0.19041,-0.162983 0.37647,-0.296333 0.41346,-0.296333 0.037,0 0.12607,-0.113748 0.19796,-0.252773 0.23278,-0.450143 0.90779,-0.422704 1.02434,0.04164 0.10085,0.401822 -0.42996,0.727772 -0.86349,0.53024 -0.1499,-0.0683 -0.25229,-0.04817 -0.48425,0.09519 -0.32296,0.199601 -0.46615,0.432374 -0.26597,0.432374 0.0684,0 0.12434,-0.05103 0.12434,-0.11341 0,-0.161588 0.34838,-0.299065 0.55972,-0.220878 0.25299,0.09359 0.31021,0.312508 0.16026,0.613097 -0.11924,0.239013 -0.11684,0.272132 0.0314,0.434463 0.31588,0.345892 0.29012,0.474535 -0.24711,1.234061 -0.62353,0.881531 -1.87596,2.175088 -2.908,3.003502 -0.4242,0.3405 -1.32373,0.97158 -1.99894,1.40238 -0.67522,0.43081 -1.43812,0.94481 -1.69534,1.14224 -1.18561,0.91 -3.68999,3.87366 -4.768605,5.64314 -1.076002,1.76519 -1.22858,2.09979 -1.503337,3.29676 -0.411909,1.79447 -1.204098,3.99014 -1.457216,4.03889 -0.07856,0.0151 -0.142841,-0.0248 -0.142841,-0.0888 z m 8.519313,-15.32438 c 0.17533,-0.40621 0.331,-0.72634 0.34595,-0.711391 0.0149,0.01495 -0.12263,0.461571 -0.30574,0.992491 -0.1831,0.53092 -0.32127,0.97694 -0.30705,0.99116 0.0142,0.0142 0.25777,-0.41569 0.54123,-0.95536 0.58272,-1.109457 1.4383,-2.566179 1.54646,-2.633026 0.10543,-0.06515 -0.007,0.193944 -0.33279,0.768695 -0.37073,0.653518 -1.46722,2.836331 -1.42478,2.836331 0.0178,0 0.40555,-0.59042 0.86163,-1.31205 0.45608,-0.721628 0.8462,-1.295081 0.86694,-1.274339 0.0207,0.02074 -0.22752,0.468373 -0.5517,0.994739 -1.00494,1.63171 -1.0054,1.62175 0.0354,0.76946 0.50352,-0.41232 1.04883,-0.83723 1.21182,-0.944244 0.42837,-0.281264 -0.7688,0.852614 -1.4308,1.355154 -0.60124,0.45641 -0.60757,0.52968 -0.016,0.1849 0.93827,-0.54681 2.76912,-2.027074 3.56082,-2.878956 0.52888,-0.569083 1.28576,-1.605084 1.41091,-1.93121 0.0246,-0.06418 -0.17068,-0.156496 -0.53662,-0.253641 -0.82922,-0.220132 -1.51959,-0.560433 -2.08991,-1.030165 -0.69762,-0.574591 -0.69081,-0.57045 -0.84247,-0.512255 -0.40155,0.154088 -1.53004,2.118868 -2.07647,3.615276 -0.14454,0.395817 -0.47295,1.295762 -0.72981,1.999881 -0.25685,0.70411 -0.46529,1.31371 -0.46318,1.35466 0.006,0.11393 0.3709,-0.60299 0.72616,-1.42611 z m 3.4112,-1.285456 c 0.10524,-0.112031 0.27381,-0.224491 0.37459,-0.249912 0.15127,-0.03816 0.13501,-0.0026 -0.0933,0.203692 -0.33109,0.299253 -0.55334,0.335766 -0.28132,0.04622 z m -2.78651,-0.139179 c 0,-0.160692 0.28051,-0.633108 0.31512,-0.530702 0.0186,0.05505 -0.0266,0.216977 -0.10049,0.359833 -0.13784,0.266555 -0.21463,0.32769 -0.21463,0.170869 z m -6.833467,-2.588553 c 0.03307,-0.03307 0.06072,0.317693 0.06143,0.77948 0.0015,0.975249 0.08851,1.227248 0.24425,0.707437 0.05765,-0.192431 0.307609,-0.793864 0.555456,-1.336517 0.247847,-0.542653 0.516166,-1.139043 0.596265,-1.325309 0.238173,-0.553865 0.235036,-0.20262 -0.0041,0.460353 -0.121602,0.337111 -0.20276,0.631265 -0.180349,0.653676 0.02241,0.02241 0.311963,-0.504828 0.643455,-1.171642 0.83066,-1.670943 1.10457,-2.742162 1.16875,-4.570788 0.0256,-0.72952 0.0239,-1.385298 -0.004,-1.457285 -0.0428,-0.111501 -0.19814,-0.07987 -1.04895,0.21355 -1.40032,0.482937 -1.76651,0.497534 -3.058662,0.121926 -0.574166,-0.166901 -1.093278,-0.303457 -1.153583,-0.303457 -0.268288,0 -0.286917,1.503181 -0.04554,3.674063 0.172349,1.550027 0.425173,2.736705 0.788991,3.703279 0.241352,0.641213 0.645962,1.459983 0.696502,1.409443 0.01946,-0.01946 -0.02115,-0.356626 -0.09024,-0.749252 -0.197109,-1.120039 -0.133732,-1.229168 0.119557,-0.205866 0.126789,0.512233 0.304413,1.140883 0.39472,1.397 l 0.164195,0.465666 0.0457,-1.202813 c 0.02514,-0.661547 0.07276,-1.229872 0.105833,-1.262944 z m -1.170725,-1.068025 c -0.02809,-0.0732 -0.0378,-0.26055 -0.02157,-0.416324 l 0.02951,-0.283227 0.101776,0.336118 c 0.06408,0.211618 0.07207,0.365826 0.02157,0.416324 -0.0505,0.0505 -0.09913,0.03091 -0.131281,-0.05289 z m 3.093522,-1.198171 c 0,-0.06469 0.0749,-0.207566 0.16652,-0.3175 0.17604,-0.211314 0.21788,-0.125153 0.11878,0.24462 -0.0553,0.206404 -0.2853,0.265154 -0.2853,0.07288 z m 10.03799,1.935261 c -0.18727,-0.141643 -0.35389,-0.160069 -0.42385,-0.04687 -0.0584,0.09453 0.0932,0.161844 0.37653,0.167187 0.20416,0.0038 0.20583,-4.18e-4 0.0473,-0.120315 z m -0.61333,-0.240991 c 0.0796,-0.207473 -0.12425,-0.321201 -0.29644,-0.165372 -0.0845,0.07643 -0.15355,0.171162 -0.15355,0.210511 0,0.11995 0.40212,0.07961 0.44999,-0.04514 z m -0.5846,-0.298244 c 0.10188,-0.112579 0.11685,-0.178719 0.0498,-0.220145 -0.0527,-0.03257 -0.14922,0.01127 -0.21449,0.09743 -0.22774,0.300614 -0.0895,0.403611 0.16467,0.122718 z m -0.37935,-0.251274 c 0.11289,-0.210946 0.0101,-0.301619 -0.13114,-0.115649 -0.13368,0.176043 -0.14626,0.27385 -0.0352,0.27385 0.0449,0 0.11978,-0.07119 0.16635,-0.158201 z m -0.3575,-0.381838 c -0.0327,-0.09808 -0.65039,-0.321455 -0.77451,-0.280083 -0.0485,0.01616 0.0639,0.16916 0.24974,0.339994 0.30863,0.283711 0.34716,0.298082 0.44487,0.165959 0.0588,-0.07956 0.0948,-0.181199 0.0799,-0.22587 z m -9.553856,-6.317961 c 0.0065,-0.220245 -0.01235,-0.263724 -0.07335,-0.169333 -0.04514,0.06985 -0.07815,0.3175 -0.07335,0.550333 0.0076,0.368376 0.01711,0.390359 0.07335,0.169334 0.03555,-0.1397 0.06856,-0.38735 0.07335,-0.550334 z m 0.682564,0.293158 c 0.09648,-0.257864 0.175416,-0.488878 0.175416,-0.513365 0,-0.02449 -0.123825,-0.03258 -0.275167,-0.01799 -0.272044,0.02623 -0.275454,0.03205 -0.300558,0.513364 -0.03423,0.656327 0.15824,0.664977 0.400309,0.01799 z m -1.602584,-0.04998 v -0.434154 l -0.356236,0.05696 c -0.195931,0.03133 -0.529306,0.133812 -0.740834,0.227735 -0.442399,0.196436 -0.401858,0.248926 0.348098,0.45069 0.738992,0.198815 0.748972,0.194801 0.748972,-0.301235 z m 0.502049,-0.179679 c 0.0033,-0.174625 -0.03215,-0.3175 -0.07872,-0.3175 -0.04732,0 -0.08204,0.214755 -0.07872,0.486834 0.0043,0.350264 0.02636,0.439331 0.07872,0.3175 0.04002,-0.09313 0.07544,-0.312209 0.07872,-0.486834 z m 1.619757,0.180427 c 0.118124,-0.231542 0.14958,-0.377077 0.09359,-0.433062 -0.08528,-0.08528 -0.265708,0.188239 -0.390044,0.591302 -0.10007,0.324401 0.106471,0.214154 0.296452,-0.15824 z m 0.9304,0.05023 c 0.30711,-0.158814 0.31687,-0.272847 0.0326,-0.380922 -0.37704,-0.143349 -0.52205,-0.100382 -0.62121,0.184063 -0.0511,0.146649 -0.093,0.279999 -0.093,0.296334 0,0.08143 0.46215,0.01398 0.68154,-0.09947 z m -2.012041,-1.14223 c -0.02453,-0.09381 -0.07811,-0.191273 -0.119051,-0.216579 -0.08459,-0.05228 -0.103376,0.330166 -0.02031,0.413237 0.09848,0.09848 0.184714,-0.02321 0.139356,-0.196658 z"
       id="path1"
       sodipodi:nodetypes="sssssscssssssssssssssssssssssssssssssssssssssssssssssssssscssscssssssssssssssssssssssssssssscssssssssssssssscsssscsssssssssssssscssssssssscssssscsssssssssscssssssssssssssssssssscssscsssssccssssccscscssssssssssssssss" />
  </g>
</svg>
