<?xml version="1.0" encoding="UTF-8" standalone="no"?>
<!-- Created with Inkscape (http://www.inkscape.org/) -->

<svg
   width="23.145521mm"
   height="35.136971mm"
   viewBox="0 0 23.145521 35.136971"
   version="1.1"
   id="svg1"
   inkscape:version="1.3.2 (1:1.3.2+202311252150+091e20ef0f)"
   sodipodi:docname="plant2.svg"
   xmlns:inkscape="http://www.inkscape.org/namespaces/inkscape"
   xmlns:sodipodi="http://sodipodi.sourceforge.net/DTD/sodipodi-0.dtd"
   xmlns="http://www.w3.org/2000/svg"
   xmlns:svg="http://www.w3.org/2000/svg">
  <sodipodi:namedview
     id="namedview1"
     pagecolor="#ffffff"
     bordercolor="#000000"
     borderopacity="0.25"
     inkscape:showpageshadow="2"
     inkscape:pageopacity="0.0"
     inkscape:pagecheckerboard="0"
     inkscape:deskcolor="#d1d1d1"
     inkscape:document-units="mm"
     inkscape:zoom="0.72693603"
     inkscape:cx="53.649838"
     inkscape:cy="185.71098"
     inkscape:window-width="1850"
     inkscape:window-height="1016"
     inkscape:window-x="0"
     inkscape:window-y="0"
     inkscape:window-maximized="1"
     inkscape:current-layer="layer1" />
  <defs
     id="defs1" />
  <g
     inkscape:label="Layer 1"
     inkscape:groupmode="layer"
     id="layer1"
     transform="translate(-90.752083,-99.218749)">
    <path
       style="fill:#000000"
       d="m 103.58493,134.29479 c -0.25587,-0.34259 -0.93377,-2.4809 -1.81826,-5.73535 -0.72676,-2.6741 -0.86827,-2.9371 -2.13903,-3.97542 -0.90924,-0.74293 -1.86567,-1.32859 -3.77469,-2.31136 -0.95461,-0.49145 -1.98331,-1.03402 -2.286,-1.20573 -1.92729,-1.09334 -2.58553,-2.22263 -2.15012,-3.68881 0.17595,-0.59248 0.59595,-1.01274 1.25861,-1.25933 0.45772,-0.17034 0.56639,-0.17992 1.15011,-0.10136 1.2551,0.16891 2.30007,0.67655 3.31133,1.60863 1.22185,1.12618 1.4904,1.64543 3.25298,6.28986 0.2434,0.64135 0.41481,0.84845 0.49449,0.59742 0.0526,-0.16563 -0.70412,-4.64848 -0.91356,-5.41219 -0.0935,-0.34112 -0.27997,-0.62527 -0.83323,-1.27 -1.08509,-1.26449 -3.83053,-4.59975 -4.72592,-5.74123 -1.75673,-2.23953 -2.62694,-3.76605 -3.30788,-5.80269 -0.30846,-0.9226 -0.34225,-1.10803 -0.35107,-1.92707 -0.0149,-1.38604 0.2399,-1.83232 1.26778,-2.22038 0.96915,-0.36588 2.1113,-0.0222 3.10856,0.93544 0.79023,0.75881 1.28649,1.81176 1.69485,3.59604 0.36705,1.60377 1.24218,4.74482 1.75738,6.30766 0.85557,2.59534 0.7912,2.62396 0.78975,-0.35116 -0.001,-2.2286 0.0234,-2.72974 0.18469,-3.77401 0.40539,-2.62523 1.00975,-4.71514 1.87981,-6.5005 1.24303,-2.550709 2.77626,-3.629952 4.15017,-2.921318 0.79185,0.408417 1.37934,1.158468 1.58208,2.019838 0.23089,0.98094 0.1017,1.91261 -0.43425,3.13157 -0.55369,1.25932 -2.40983,4.53662 -3.77193,6.65992 -1.38575,2.16014 -2.19959,4.19946 -2.66313,6.67323 -0.13169,0.70279 -0.13153,0.70516 0.15957,2.30681 0.16027,0.88181 0.33792,1.89856 0.39478,2.25945 0.0569,0.3609 0.13162,0.65617 0.16614,0.65617 0.0777,0 0.16873,-0.33555 0.58683,-2.16345 1.02782,-4.49359 2.68267,-8.68398 4.48509,-11.35709 2.30261,-3.41492 4.33336,-5.05039 6.27676,-5.055 0.71555,-0.002 1.0672,0.18989 1.33482,0.72725 0.16785,0.33702 0.19629,0.52225 0.19513,1.2707 -7.5e-4,0.48188 -0.0415,1.05509 -0.0905,1.27378 -0.31274,1.39548 -1.5874,3.78727 -2.85412,5.35548 -0.69035,0.85465 -2.59238,2.76409 -3.37369,3.38682 -0.57238,0.4562 -2.76454,2.4243 -3.35727,3.0141 -0.95722,0.95252 -2.17479,2.83241 -2.64685,4.08666 -0.30948,0.82229 -0.28879,1.38641 0.12004,3.27305 0.49141,2.26772 1.09924,4.32128 1.10071,3.7188 0.002,-0.783 0.20977,-3.00848 0.34315,-3.67404 0.56214,-2.80506 1.89642,-5.39808 3.07001,-5.9662 0.4269,-0.20666 1.11523,-0.23394 1.52109,-0.0603 0.34327,0.14687 0.6929,0.51587 0.85222,0.89942 0.19079,0.4593 0.33352,1.59446 0.27395,2.17869 -0.052,0.50992 -0.44701,1.67907 -0.8032,2.37726 -0.32839,0.64371 -1.19676,1.61027 -2.18828,2.43574 -1.41954,1.1818 -2.23175,2.02347 -2.51877,2.61012 -0.27744,0.56707 -0.26811,0.64366 0.2449,2.00943 0.21751,0.57909 0.25783,0.76875 0.17758,0.83535 -0.0718,0.0596 -0.12844,0.0532 -0.18364,-0.0207 z m 0.54959,-5.10069 c 3.19571,-5.42657 4.07976,-6.99968 4.07976,-7.25962 0,-0.11296 -0.0978,-0.29725 -0.21732,-0.40954 l -0.21733,-0.20417 -0.15984,0.21058 c -0.87204,1.14885 -3.64707,6.87942 -4.01745,8.29624 l -0.0553,0.21166 0.16866,-0.21015 c 0.0928,-0.11558 0.28125,-0.40133 0.41886,-0.635 z m 0.76723,-3.08381 c 0.61496,-1.30955 1.49778,-2.96992 2.33639,-4.39423 0.1558,-0.26461 0.26547,-0.50992 0.24371,-0.54512 -0.0218,-0.0352 -0.22644,-0.064 -0.45486,-0.064 h -0.4153 l -0.47479,0.99483 c -0.8776,1.83883 -2.11672,5.10617 -2.57612,6.7928 -0.28338,1.04039 -0.19013,0.95953 0.24213,-0.20997 0.22376,-0.60536 0.71823,-1.7638 1.09884,-2.5743 z m -0.59091,-0.11777 c 0.45793,-1.24259 1.08469,-2.76 1.61215,-3.90309 0.19115,-0.41423 0.33259,-0.7681 0.31432,-0.78637 -0.0183,-0.0183 -0.277,0.23008 -0.57496,0.55189 -1.19649,1.29233 -2.24964,3.99941 -2.44287,6.2793 -0.13914,1.64178 -0.10832,1.66959 0.30062,0.27127 0.20831,-0.71229 0.56414,-1.79814 0.79074,-2.413 z m 2.18064,0.67883 c 0.91316,-1.21575 1.75055,-2.38022 1.86088,-2.58772 0.21833,-0.41062 0.26963,-1.09076 0.11329,-1.50196 l -0.0873,-0.22961 -0.26366,0.4146 c -0.14502,0.22803 -0.67438,1.1438 -1.17635,2.03505 -0.50197,0.89126 -1.12092,1.95806 -1.37545,2.37067 -0.5763,0.93424 -1.41261,2.38351 -1.41261,2.44795 0,0.11183 0.78314,-0.87461 2.3412,-2.94898 z m -0.9887,2.09972 c 1.08671,-0.9064 1.9646,-1.89303 2.34727,-2.63801 0.40946,-0.79716 0.64927,-1.41936 0.60186,-1.56159 -0.019,-0.0571 -0.62992,0.69255 -1.3575,1.66595 -0.72758,0.97341 -1.55708,2.06511 -1.84334,2.426 -0.28626,0.36089 -0.4947,0.65617 -0.4632,0.65617 0.0315,0 0.3532,-0.24684 0.71491,-0.54852 z m -5.59481,-4.89132 c -1.08506,-2.07525 -4.71767,-6.35014 -6.20236,-7.29899 -0.40089,-0.2562 -0.54716,-0.30704 -0.76061,-0.26435 -0.29168,0.0583 -0.90205,0.43113 -0.90205,0.55095 0,0.0418 0.25718,0.25766 0.5715,0.47966 0.31433,0.222 0.97155,0.73124 1.4605,1.13166 0.48895,0.40042 1.17213,0.95555 1.51818,1.23363 1.14375,0.91913 2.71122,2.42849 3.53122,3.40033 0.4444,0.52669 0.82492,0.95762 0.84561,0.95762 0.0207,0 -0.007,-0.0857 -0.062,-0.19051 z m -0.71149,-0.0648 c -0.0292,-0.0473 -0.44104,-0.37909 -0.91516,-0.73736 -0.47412,-0.35827 -1.22798,-0.93871 -1.67526,-1.28987 -0.44727,-0.35116 -1.13307,-0.86372 -1.524,-1.13904 -0.39092,-0.27531 -0.93937,-0.66134 -1.21877,-0.85784 -0.64003,-0.45012 -1.98939,-1.22392 -2.13428,-1.22392 -0.30639,0 0.10957,0.80637 0.70538,1.36742 0.52072,0.49035 1.36999,0.99579 3.63426,2.16289 1.16195,0.59892 2.34123,1.24783 2.62063,1.44202 0.55534,0.38599 0.58549,0.40238 0.5072,0.2757 z m -0.80537,-1.17944 c -0.73005,-0.82143 -2.34724,-2.26573 -4.19911,-3.75016 -1.54771,-1.24062 -2.14767,-1.6731 -2.32102,-1.6731 -0.10774,0 -0.33603,0.515 -0.33603,0.75806 0,0.12463 0.14313,0.24307 0.52917,0.43789 0.56259,0.28392 2.04336,1.25227 3.31464,2.16762 1.01585,0.73143 3.21841,2.44343 3.35441,2.6073 0.059,0.0711 0.12538,0.11109 0.14754,0.0889 0.0222,-0.0222 -0.19815,-0.3086 -0.4896,-0.63653 z m 0.69152,-0.70309 c -0.13371,-0.24448 -0.40667,-0.7493 -0.60659,-1.12183 -0.42785,-0.7973 -1.54208,-2.48709 -2.13632,-3.23982 -0.23033,-0.29177 -0.58261,-0.6265 -0.78286,-0.74385 -0.37572,-0.22019 -1.55391,-0.58689 -1.63265,-0.50815 -0.0244,0.0244 0.0661,0.12613 0.20132,0.22597 0.80226,0.59258 3.80402,3.92723 4.77653,5.30625 0.20399,0.28926 0.38277,0.52593 0.39728,0.52593 0.0145,0 -0.083,-0.20003 -0.21671,-0.4445 z m 3.62512,-2.18017 c 0.19927,-0.39581 0.57411,-1.08161 0.83298,-1.524 1.69391,-2.89472 1.65843,-2.83864 4.46873,-7.0643 2.17053,-3.26369 2.87845,-4.22522 4.13733,-5.61948 0.30728,-0.34034 0.53877,-0.65104 0.51441,-0.69045 -0.0494,-0.08 -0.55295,-0.0382 -1.1742,0.0974 -0.38503,0.0841 -0.45207,0.14238 -1.08892,0.94703 -1.07874,1.36298 -2.02844,2.72398 -2.66611,3.82077 -0.32488,0.5588 -0.91476,1.56845 -1.31084,2.24367 -1.65891,2.82799 -3.55442,6.65285 -4.24991,8.57566 -0.45285,1.25198 -0.51258,1.59931 -0.10502,0.61067 0.15358,-0.37253 0.44227,-1.00118 0.64155,-1.397 z m -3.76901,1.1228 c -0.39105,-1.03894 -0.77997,-1.75078 -1.27968,-2.34219 -0.83098,-0.98348 -0.93695,-0.92468 -0.23238,0.12894 0.35435,0.5299 0.87387,1.37303 1.15449,1.87362 0.28061,0.50059 0.52418,0.91017 0.54127,0.91017 0.0171,0 -0.0656,-0.25675 -0.1837,-0.57054 z m 3.9441,-0.65713 c 1.56689,-2.77271 7.08332,-9.97105 10.00841,-13.05989 0.82792,-0.87427 0.87861,-1.02363 0.57465,-1.69328 -0.24625,-0.54249 -0.42316,-0.49352 -1.22988,0.34043 -0.37257,0.38515 -1.00361,1.11858 -1.4023,1.62984 -1.3683,1.75461 -5.05964,7.33776 -6.50429,9.83771 -1.05712,1.82934 -2.25678,4.16715 -2.00735,3.9118 0.0189,-0.0194 0.27129,-0.45438 0.56076,-0.96661 z m 1.12133,-0.99483 c 0.53384,-0.71015 1.31879,-1.71027 1.74431,-2.2225 0.42553,-0.51224 1.07304,-1.29329 1.43892,-1.73567 0.93212,-1.12701 4.05458,-4.25439 4.94145,-4.94923 0.71354,-0.55904 0.74857,-0.60281 0.99595,-1.24428 0.40946,-1.06175 0.64673,-2.18849 0.46085,-2.18849 -0.36684,0 -3.69031,3.90874 -6.78658,7.98171 -1.58476,2.08467 -3.98755,5.64962 -3.80787,5.64962 0.0233,0 0.47912,-0.58102 1.01297,-1.29116 z m -0.66777,-1.83832 c 0.82044,-1.76027 1.63823,-3.29903 2.97146,-5.59118 1.78626,-3.07102 2.1798,-3.69946 3.12813,-4.99534 0.52821,-0.72178 0.94736,-1.32651 0.93144,-1.34384 -0.0669,-0.0729 -1.31586,0.95949 -1.95007,1.6119 -1.9258,1.98107 -3.83331,5.29591 -5.13199,8.91828 -0.56342,1.57153 -1.17509,3.66144 -1.16405,3.9772 0.002,0.0477 0.11182,-0.16085 0.24478,-0.46354 0.13296,-0.30268 0.5696,-1.25375 0.9703,-2.11348 z m 3.09863,-0.13645 c 3.16105,-2.72342 4.99673,-4.77685 6.01161,-6.72473 0.10547,-0.20243 0.10327,-0.20587 -0.0502,-0.0789 -1.673,1.38439 -4.09244,3.76581 -5.1122,5.03186 -0.30007,0.37253 -0.90995,1.11548 -1.35531,1.651 -1.01611,1.22182 -1.43825,1.77416 -1.22468,1.6024 0.0911,-0.0733 0.86999,-0.74004 1.73079,-1.48166 z m -8.23525,-1.44228 c -0.15518,-0.27433 -0.54964,-0.89884 -0.87657,-1.38779 -1.59114,-2.37966 -4.86053,-8.15394 -5.70322,-10.07285 -0.43235,-0.9845 -0.42833,-0.978 -0.51766,-0.83702 -0.25895,0.40869 0.19543,1.57575 1.7094,4.39054 1.10526,2.05491 2.44989,4.15855 3.8339,5.99804 0.47848,0.63596 1.07063,1.45467 1.31588,1.81934 0.24524,0.36468 0.46266,0.64629 0.48316,0.62579 0.0205,-0.0205 -0.0897,-0.26172 -0.24489,-0.53605 z m 0.30958,-0.13895 c -0.0781,-0.15135 -0.66971,-1.25597 -1.31476,-2.45471 -2.00281,-3.722 -3.47454,-6.71497 -4.30825,-8.76148 -0.44059,-1.08149 -0.84809,-1.96732 -0.90556,-1.9685 -0.0575,-0.001 -0.22478,0.10532 -0.37179,0.23668 l -0.26729,0.23882 0.18229,0.54777 c 0.41107,1.23525 2.74792,5.67793 4.11451,7.82225 0.14839,0.23283 0.64469,1.03293 1.10289,1.778 1.29531,2.10625 2.23702,3.47048 1.76796,2.56117 z m 1.65732,-0.508 c 0.33863,-2.17208 0.45685,-2.87616 0.68594,-4.08517 0.66027,-3.48451 0.91737,-4.53296 1.82399,-7.43813 0.57687,-1.84854 0.86532,-2.63356 1.28923,-3.50866 0.29277,-0.604401 0.22614,-0.656948 -0.33202,-0.261819 -0.79563,0.563239 -1.08489,1.124339 -1.59681,3.097379 -0.16484,0.63535 -0.8545,3.93308 -1.06552,5.09505 -0.47817,2.63291 -1.09421,7.71518 -0.93519,7.71518 0.0191,0 0.0777,-0.27623 0.13038,-0.61383 z m 0.80582,-0.4445 c 0.4775,-1.24252 1.13114,-2.51124 2.20282,-4.27567 1.08557,-1.7873 1.4819,-2.47044 1.98936,-3.429 0.19721,-0.37253 0.58071,-1.09643 0.85222,-1.60867 0.52124,-0.9834 0.92865,-2.07082 0.9255,-2.47026 l -0.002,-0.23907 -0.16466,0.21167 c -0.23009,0.29576 -1.37055,2.3168 -2.24552,3.97933 -0.40438,0.76835 -1.01533,1.91135 -1.35768,2.54 -0.34234,0.62865 -0.8004,1.54305 -1.01792,2.032 -0.39102,0.87898 -1.42941,3.53568 -1.56966,4.01596 -0.14156,0.48476 0.0668,0.078 0.38742,-0.75629 z m -3.00911,-1.73954 c -1.33533,-3.80021 -2.18027,-6.44269 -2.54357,-7.9548 -0.1846,-0.76835 -0.37362,-1.49225 -0.42003,-1.60866 -0.081,-0.20327 -0.65488,-0.67734 -0.81989,-0.67734 -0.30908,0 0.71476,3.36981 1.99362,6.56167 1.2153,3.03322 2.55487,6.16979 2.61102,6.11364 0.014,-0.014 -0.35556,-1.10949 -0.82115,-2.43451 z m 0.68154,0.83779 c -0.61603,-1.8424 -1.44426,-4.67517 -1.90235,-6.50659 -0.37862,-1.51366 -0.90779,-3.02677 -1.19323,-3.4119 -0.13261,-0.17892 -0.13609,-0.16937 -0.0865,0.2369 0.1091,0.89328 0.62436,2.72079 1.45617,5.16467 1.44671,4.2505 2.1073,6.09226 2.13449,5.95107 0.0143,-0.074 -0.16962,-0.71938 -0.40861,-1.43415 z m -2.54224,-0.2471 c -1.68629,-2.30895 -3.46798,-5.3041 -4.70565,-7.91049 -0.30737,-0.64729 -0.36246,-0.72159 -0.36596,-0.49358 -0.002,0.14763 0.11278,0.60483 0.25566,1.016 0.64418,1.85373 2.1779,4.46588 3.67022,6.25092 0.42823,0.51223 1.00256,1.20687 1.27627,1.54364 0.27371,0.33677 0.51272,0.59725 0.53113,0.57883 0.0184,-0.0184 -0.27934,-0.4618 -0.66167,-0.98532 z m 5.04297,-0.1 c 0.52612,-1.46703 0.90276,-2.32696 1.62543,-3.71108 0.32625,-0.62485 1.03106,-1.97429 1.56626,-2.99875 0.93982,-1.79897 1.86588,-3.42865 2.36614,-4.16392 0.1476,-0.21695 0.24079,-0.46495 0.24079,-0.6408 0,-0.34068 -0.22395,-1.13572 -0.34014,-1.20753 -0.11652,-0.072 -0.67831,0.83667 -1.30916,2.11758 -0.50895,1.03339 -0.72568,1.52018 -1.80938,4.064 -0.73383,1.72255 -2.55923,6.65015 -2.75222,7.4295 -0.12796,0.51675 0.0313,0.17331 0.41228,-0.889 z m -0.63321,-3.45017 c 0.60943,-3.97281 1.13646,-6.54763 1.64494,-8.03646 0.11799,-0.34547 0.20297,-0.63968 0.18884,-0.65381 -0.0509,-0.0509 -0.58887,0.9073 -0.79277,1.41212 -0.23149,0.57311 -0.69422,2.30503 -0.95546,3.57616 -0.32858,1.59876 -0.59116,3.82889 -0.67844,5.76208 -0.10873,2.40824 -0.099,2.70658 0.0518,1.58058 0.0654,-0.48895 0.30895,-2.12725 0.54111,-3.64067 z m 0.3346,3.04697 c 0.93047,-3.71684 3.08442,-10.30618 4.05422,-12.40263 0.3925,-0.848474 0.41824,-0.940752 0.28941,-1.037169 -0.0778,-0.05821 -0.28246,-0.105834 -0.45484,-0.105834 h -0.3134 l -0.37932,0.867833 c -0.71853,1.64388 -1.25731,3.22627 -1.99633,5.86317 -0.31429,1.12141 -0.82246,3.59 -1.23745,6.01133 -0.1676,0.9779 -0.3271,1.8923 -0.35445,2.032 -0.0274,0.1397 -0.0289,0.23448 -0.004,0.21063 0.0254,-0.0238 0.20346,-0.67155 0.39567,-1.43933 z m -3.51315,-0.48041 c -2.12996,-5.22343 -3.04734,-7.74789 -3.31283,-9.11625 -0.16783,-0.86496 -0.28672,-1.05047 -0.73855,-1.15232 -0.34569,-0.0779 -0.9009,-0.0254 -0.9009,0.0852 0,0.12063 0.56648,1.63386 1.08733,2.90461 0.46448,1.13318 2.31179,4.8514 3.49796,7.04057 0.25231,0.46566 0.53193,1.01336 0.62137,1.21709 0.0894,0.20373 0.17609,0.32999 0.19257,0.28056 0.0165,-0.0494 -0.18465,-0.61617 -0.44695,-1.25943 z m 2.40779,-0.49222 c 0.17835,-2.68217 0.3685,-4.09454 0.90447,-6.71821 0.11747,-0.57505 0.19716,-1.06198 0.17707,-1.08207 -0.0586,-0.0586 -0.56334,1.9253 -0.86698,3.40801 -0.3532,1.72473 -0.48798,3.27802 -0.41184,4.74609 0.0323,0.62219 0.0683,1.12097 0.0801,1.10839 0.0118,-0.0126 0.0645,-0.67058 0.11716,-1.46221 z m 1.91007,-0.8255 c 1.24116,-3.48441 2.86716,-7.37305 3.98104,-9.52084 l 0.71137,-1.37166 -0.33262,-0.26344 -0.33262,-0.263446 -0.29828,0.466286 c -0.16405,0.25645 -0.45434,0.8208 -0.64509,1.2541 -0.40461,0.91911 -2.18826,6.22241 -2.99865,8.91583 -0.69873,2.32233 -0.65254,2.159 -0.61063,2.159 0.0195,0 0.25594,-0.61912 0.52548,-1.37583 z"
       id="path133"
       sodipodi:nodetypes="ssssssssssscssssssssccsssssssssssssscssssscsssssssssssscsscssccccsssscssssssssssssssscsssssssssssssssssssssssssssssssssssssssssssssssscsssssssssssssssssssssssssssssssssssssssssssscsssssssssssssssssssssssscsssscsssssssccsssccsssssccsssssssssscscsssscssssssssssssssssssssscsscssscsssccccssssssssssssssssssscccsssss" />
  </g>
</svg>
