<?xml version="1.0" encoding="UTF-8" standalone="no"?>
<!-- Created with Inkscape (http://www.inkscape.org/) -->

<svg
   width="14.886893mm"
   height="29.387165mm"
   viewBox="0 0 14.886893 29.387165"
   version="1.1"
   id="svg1"
   inkscape:version="1.3.2 (1:1.3.2+202311252150+091e20ef0f)"
   sodipodi:docname="plant6.svg"
   xmlns:inkscape="http://www.inkscape.org/namespaces/inkscape"
   xmlns:sodipodi="http://sodipodi.sourceforge.net/DTD/sodipodi-0.dtd"
   xmlns="http://www.w3.org/2000/svg"
   xmlns:svg="http://www.w3.org/2000/svg">
  <sodipodi:namedview
     id="namedview1"
     pagecolor="#ffffff"
     bordercolor="#000000"
     borderopacity="0.25"
     inkscape:showpageshadow="2"
     inkscape:pageopacity="0.0"
     inkscape:pagecheckerboard="0"
     inkscape:deskcolor="#d1d1d1"
     inkscape:document-units="mm"
     inkscape:zoom="0.72693603"
     inkscape:cx="148.56878"
     inkscape:cy="196.71607"
     inkscape:window-width="1850"
     inkscape:window-height="1016"
     inkscape:window-x="0"
     inkscape:window-y="0"
     inkscape:window-maximized="1"
     inkscape:current-layer="layer1" />
  <defs
     id="defs1" />
  <g
     inkscape:label="Layer 1"
     inkscape:groupmode="layer"
     id="layer1"
     transform="translate(-65.352086,-96.572917)">
    <path
       style="fill:#000000"
       d="m 65.591644,125.86262 c 0,-0.0493 0.109421,-0.23027 0.243156,-0.40217 0.31578,-0.40588 1.257673,-2.45276 1.429506,-3.10653 l 0.133518,-0.508 -0.45238,-0.71967 c -1.035385,-1.64714 -1.280584,-2.0911 -1.440054,-2.60741 -0.369371,-1.19588 -0.05103,-1.95432 0.737257,-1.75647 0.850181,0.21338 1.218957,1.17653 1.341307,3.50314 0.03265,0.62091 0.08651,1.09716 0.119696,1.05834 0.03318,-0.0388 0.2988,-0.63734 0.590265,-1.33002 0.599662,-1.42512 0.600483,-1.43844 0.146986,-2.38473 -0.222822,-0.46495 -0.515314,-0.83277 -1.386801,-1.74392 -1.126796,-1.17809 -1.364939,-1.55326 -1.257549,-1.98113 0.05787,-0.23058 0.351419,-0.34186 0.682541,-0.25875 0.313956,0.0788 0.780337,0.52552 1.196863,1.14641 0.77259,1.15166 0.266281,-0.23263 -0.972232,-2.65817 -0.874478,-1.71259 -1.095164,-2.27511 -1.172285,-2.98808 -0.06138,-0.56743 0.140748,-1.13957 0.452816,-1.28176 0.622076,-0.28344 1.327609,0.71554 1.637253,2.31822 0.08997,0.46567 0.224594,1.36102 0.299167,1.98967 0.209908,1.76953 1.003318,5.842 1.138156,5.842 0.02843,0 0.100066,-0.12383 0.159192,-0.27517 0.231163,-0.5917 1.114956,-3.29228 1.114956,-3.40694 0,-0.34204 -0.458496,-1.48443 -0.877781,-2.18708 -0.260782,-0.43702 -0.634937,-1.19071 -0.831458,-1.67487 -0.307057,-0.75647 -0.357857,-0.96959 -0.361202,-1.51528 -0.006,-0.97858 0.406427,-1.53836 0.984849,-1.33672 0.30972,0.10797 0.449115,0.31892 0.726739,1.09981 0.203152,0.57142 0.223963,0.76442 0.276616,2.56525 0.04069,1.39172 0.09162,2.0297 0.178503,2.23602 l 0.121568,0.28868 0.331634,-1.05068 c 0.518411,-1.64244 0.501024,-2.46699 -0.121016,-5.73912 -0.688964,-3.62416 -0.684065,-4.94216 0.02182,-5.87 0.311968,-0.41006 0.602366,-0.49675 0.934665,-0.27902 0.265582,0.17401 0.47773,0.69907 0.47773,1.18235 0,0.45787 -0.328522,3.60119 -0.386114,3.69438 -0.138806,0.22459 -0.410251,4.00013 -0.312158,4.34182 0.06069,0.2114 0.13564,0.0315 0.564481,-1.35467 0.271974,-0.87914 0.641216,-2.01238 0.820537,-2.51831 0.355821,-1.00391 0.894091,-3.47376 1.166029,-5.35031 0.219612,-1.515473 0.667488,-2.827057 1.266372,-3.708515 0.392933,-0.578331 1.085639,-0.741527 1.459261,-0.343789 0.17401,0.185241 0.204002,0.298028 0.197004,0.740833 -0.0098,0.620804 -0.285744,1.648959 -0.662797,2.469661 -0.149758,0.32597 -0.691313,1.29752 -1.203455,2.159 -0.512142,0.86148 -1.068517,1.81398 -1.236389,2.11667 -0.312509,0.56347 -1.53877,4.085 -1.481891,4.25563 0.01735,0.052 0.215239,-0.1698 0.439757,-0.493 0.224519,-0.3232 0.516122,-0.74003 0.648008,-0.9263 0.131885,-0.18627 0.63998,-0.91017 1.129099,-1.60867 1.368795,-1.95474 2.220399,-2.85143 2.985631,-3.14367 0.458473,-0.17509 0.736663,-0.10396 0.872092,0.22299 0.354407,0.85562 -0.596705,2.1959 -2.3708,3.34089 -1.473517,0.95099 -2.787015,2.03988 -3.58735,2.97391 -0.421068,0.49141 -0.458545,0.5763 -0.803575,1.82033 -0.199049,0.71769 -0.458504,1.60258 -0.576566,1.96642 -0.118062,0.36385 -0.2012,0.67475 -0.18475,0.69091 0.03676,0.0361 1.202386,-1.34971 1.956534,-2.32611 1.253501,-1.62291 3.968047,-3.96608 5.367042,-4.63277 1.132746,-0.53981 1.977332,-0.45761 1.977332,0.19244 0,0.61724 -0.400986,1.21307 -1.180836,1.75462 -0.207077,0.14379 -1.131854,0.59404 -2.05506,1.00055 -2.178536,0.95925 -3.783818,1.94806 -4.719233,2.90691 -0.427884,0.4386 -0.405626,0.48252 0.08695,0.17157 0.669419,-0.42258 3.350056,-1.72398 3.997836,-1.94087 1.543604,-0.51683 2.192217,-0.11488 1.448808,0.89784 -0.723776,0.98598 -2.14779,1.51298 -4.549111,1.68352 -1.709827,0.12144 -2.144916,0.30005 -2.52198,1.03536 -0.170713,0.3329 -0.589586,1.49829 -0.950989,2.64583 -0.117324,0.37253 -0.24239,0.75302 -0.277926,0.84552 -0.03553,0.0925 0.3144,-0.21486 0.777633,-0.68303 1.358438,-1.37292 2.228535,-1.90133 3.594508,-2.18293 0.998441,-0.20584 1.589031,0.008 1.469903,0.53129 -0.100771,0.44297 -0.435687,1.07337 -0.716408,1.34845 -0.521931,0.51146 -1.19345,0.7599 -3.23249,1.1959 -1.362363,0.29131 -2.134753,0.60472 -2.305881,0.93565 -0.09522,0.18412 -0.382702,0.88087 -0.867762,2.10311 -0.02502,0.063 0.144978,-0.0222 0.377773,-0.18946 1.159565,-0.83307 2.154729,-1.00649 2.525801,-0.44017 0.182045,0.27784 0.05911,0.6767 -0.322611,1.04667 -0.436802,0.42337 -0.898184,0.55259 -2.004238,0.56134 l -0.968981,0.008 -0.326422,0.762 c -0.57722,1.34746 -1.187728,2.61497 -1.437516,2.9845 -0.22543,0.33349 -0.4891,0.47915 -0.4891,0.2702 z m 4.69758,-4.56827 c 0.245698,-0.12254 0.483659,-0.31853 0.569751,-0.46926 0.13399,-0.23458 0.135656,-0.27621 0.01779,-0.4445 -0.278378,-0.39744 -1.21823,-0.12297 -2.289917,0.66873 -0.69084,0.51035 -0.680856,0.5239 0.359283,0.48761 0.770936,-0.0269 0.990001,-0.0665 1.343098,-0.24258 z m -3.127938,-2.74939 c -0.171368,-0.73893 -0.417169,-1.1996 -0.747557,-1.40105 -0.362689,-0.22114 -0.536064,-0.20924 -0.704874,0.0484 -0.110529,0.16869 -0.129344,0.32753 -0.08776,0.74084 0.05949,0.59124 0.399508,1.32965 1.159664,2.51842 l 0.461881,0.72231 0.02368,-1.03697 c 0.0161,-0.70512 -0.01751,-1.21458 -0.105034,-1.59195 z m 3.468025,-0.85164 c 0.2794,-0.0642 0.889,-0.19018 1.354667,-0.27989 1.002765,-0.1932 1.647177,-0.42505 2.201021,-0.7919 0.521521,-0.34544 0.905116,-0.93398 0.871603,-1.33728 l -0.02462,-0.29633 -0.541926,-0.0255 c -0.9853,-0.0464 -2.067862,0.41449 -3.183408,1.3554 -0.549686,0.46363 -1.259465,1.19723 -1.408542,1.45581 -0.08008,0.1389 -0.07113,0.15246 0.06519,0.0987 0.08691,-0.0342 0.386616,-0.1148 0.666016,-0.17903 z m -2.455159,-1.36597 c -0.583083,-1.47763 -1.544642,-2.6389 -2.030654,-2.4524 -0.151089,0.058 -0.167395,0.33179 -0.03454,0.58003 0.05169,0.0966 0.566038,0.67218 1.143,1.27911 0.576961,0.60692 1.049021,1.14134 1.049021,1.18761 0,0.0463 0.02273,0.0614 0.05052,0.0336 0.02778,-0.0278 -0.05202,-0.31036 -0.177341,-0.62795 z m -0.507366,-4.23665 c -0.272836,-2.04698 -0.393221,-2.59295 -0.709999,-3.21995 -0.295121,-0.58414 -0.521935,-0.8064 -0.784541,-0.7688 -0.3042,0.0435 -0.424324,0.36864 -0.385756,1.04397 0.04041,0.70748 0.29299,1.34123 1.197915,3.00566 0.341788,0.62865 0.672166,1.28857 0.734174,1.46649 0.06201,0.17791 0.125948,0.28387 0.142088,0.23545 0.01614,-0.0484 -0.07111,-0.84169 -0.193881,-1.76282 z m 6.687858,0.65012 c 0.940372,-0.13445 2.155417,-0.55672 2.626592,-0.91284 0.491843,-0.37173 0.931824,-0.96166 0.858923,-1.15164 -0.154814,-0.40343 -1.57472,0.0307 -3.739515,1.14338 -2.078766,1.06846 -2.014543,1.00954 -1.098338,1.00752 0.417819,-9.2e-4 1.026372,-0.0398 1.352338,-0.0864 z m -4.359911,-1.85924 -0.04786,-1.651 -0.336115,-0.67733 c -0.308386,-0.62145 -0.357069,-0.67733 -0.590115,-0.67733 -0.205644,0 -0.282182,0.0564 -0.402035,0.29633 -0.305624,0.61179 -0.169993,1.43248 0.46325,2.80305 0.27954,0.60503 0.900527,1.65228 0.941456,1.5877 0.0106,-0.0167 -0.0023,-0.77337 -0.02858,-1.68142 z m 3.724911,-0.0879 c 0.570547,-0.4406 1.406553,-0.89755 2.54,-1.38831 2.449429,-1.06056 3.238033,-1.54116 3.558013,-2.16837 0.37209,-0.72936 0.126891,-1.01888 -0.714887,-0.84413 -0.659165,0.13684 -1.273285,0.47538 -2.419792,1.33394 -0.926877,0.69409 -3.471334,3.13442 -3.471334,3.32928 0,0.1042 0.100497,0.0523 0.508,-0.26241 z m -2.124794,-5.21483 c 0.197987,-1.31638 0.346617,-2.81055 0.346724,-3.48561 7.8e-5,-0.49888 -0.164701,-0.89458 -0.432127,-1.03771 -0.233669,-0.12505 -0.531527,0.14271 -0.805847,0.72442 -0.17768,0.37677 -0.199688,0.54437 -0.200121,1.524 -5.33e-4,1.20499 0.11184,2.05083 0.528667,3.97933 l 0.274498,1.27 0.0558,-0.9001 c 0.03069,-0.49505 0.135272,-1.4285 0.232408,-2.07433 z m 4.226553,0.18704 c 1.647042,-1.08266 2.542231,-2.1376 2.455884,-2.89416 -0.0239,-0.20944 -0.06933,-0.24908 -0.31211,-0.27232 -0.384029,-0.0368 -1.017406,0.39008 -1.694298,1.14182 -0.500034,0.55533 -2.629391,3.47209 -2.633778,3.60771 -0.0012,0.0361 0.247039,-0.14571 0.55157,-0.40405 0.304532,-0.25834 1.039261,-0.78889 1.632732,-1.179 z m -1.217297,-3.30861 c 0.887203,-1.42584 1.757818,-3.183342 1.950274,-3.937001 0.07729,-0.302683 0.128324,-0.758633 0.1134,-1.013221 -0.0231,-0.394119 -0.0593,-0.480873 -0.243645,-0.583944 -0.342956,-0.191755 -0.647341,0.0094 -1.072342,0.708754 -0.502501,0.826853 -0.850702,1.767966 -0.994166,2.687022 -0.32898,2.1075 -0.476084,3.00341 -0.524884,3.19672 -0.07489,0.29666 -0.05347,0.26728 0.771363,-1.05833 z"
       id="path129"
       sodipodi:nodetypes="ssscsssssssssssssssssssssssssscssssssssssssssssssssssssssssssssssssssssssssssssssccsssssssssssssssscssssssscsssssssssssssssssssssssssssssccssssscssssssssssssscssssssscssssssssss" />
  </g>
</svg>
